:FULLY-SPECIFIED
:FORCE-ALL-JOINTS-BE-3DOF
:DEGREES
272
root 8.31219 16.2052 -25.2127 21.3879 68.9426 19.1202
lfemur -24.303 7.31348 -22.8965
ltibia 40.1294 0 0
lfoot -5.77736 -21.0112 0
ltoes 64.2529 0 0
rfemur -52.8372 -6.614 12.878
rtibia 87.0885 0 0
rfoot 8.80497 -0.808766 0
rtoes 3.30087 0 0
lowerback 6.50594 -4.31997 -2.57541
upperback 1.43551 -5.93068 -1.99189
thorax -2.10109 -2.92806 -0.133031
lowerneck -5.27882 -11.219 -4.6793
upperneck 0.702454 -14.8137 5.30292
head 1.91844 -7.3189 1.89464
lclavicle -7.55818e-14 1.53023e-15 0
lhumerus -44.7848 -35.5081 107.03
lradius 59.1656 0 0
lwrist 20.0992 0 0
lhand 18.5774 14.6268 0
lfingers 7.12502 0 0
lthumb 43.2071 38.7951 0
rclavicle -7.55818e-14 1.53023e-15 0
rhumerus -53.7579 2.79385 -95.0092
rradius 42.9738 0 0
rwrist 25.5543 0 0
rhand -18.0026 -1.86191 0
rfingers 7.12502 0 0
rthumb 8.26669 -751.635 0
273
root 8.37859 16.1671 -25.1655 22.3606 69.8719 20.5564
lfemur -24.0053 7.20049 -22.9716
ltibia 41.0506 0 0
lfoot -6.72587 -21.6841 0
ltoes 62.5251 0 0
rfemur -53.1381 -5.95849 13.3918
rtibia 84.6048 0 0
rfoot 8.38867 -0.280459 0
rtoes 2.95394 0 0
lowerback 6.60526 -4.47479 -2.68109
upperback 1.63512 -6.13647 -2.07475
thorax -1.94487 -3.03106 -0.146467
lowerneck -5.14253 -11.2871 -4.74675
upperneck 0.734187 -14.913 5.4422
head 1.9295 -7.36826 1.95031
lclavicle -6.30857e-14 5.8807e-16 0
lhumerus -44.7446 -35.8026 106.922
lradius 59.2168 0 0
lwrist 20.2148 0 0
lhand 18.8931 14.9244 0
lfingers 7.12502 0 0
lthumb 43.5017 38.9839 0
rclavicle -6.30857e-14 5.8807e-16 0
rhumerus -54.4839 3.21129 -95.6877
rradius 44.6524 0 0
rwrist 24.6573 0 0
rhand -20.0753 -0.0341509 0
rfingers 7.12502 0 0
rthumb 6.26542 -749.847 0
274
root 8.44719 16.1278 -25.1167 23.3654 70.8319 22.04
lfemur -23.6977 7.08377 -23.0492
ltibia 42.0022 0 0
lfoot -7.70565 -22.3792 0
ltoes 60.7404 0 0
rfemur -53.4488 -5.28137 13.9226
rtibia 82.0393 0 0
rfoot 7.95863 0.265265 0
rtoes 2.59558 0 0
lowerback 6.70786 -4.6347 -2.79026
upperback 1.84132 -6.34904 -2.16035
thorax -1.78351 -3.13746 -0.160346
lowerneck -5.00175 -11.3574 -4.81643
upperneck 0.766965 -15.0155 5.58608
head 1.94092 -7.41924 2.0078
lclavicle -5.01776e-14 -3.85145e-16 0
lhumerus -44.703 -36.1069 106.81
lradius 59.2696 0 0
lwrist 20.3343 0 0
lhand 19.2191 15.2318 0
lfingers 7.12502 0 0
lthumb 43.806 39.179 0
rclavicle -5.01776e-14 -3.85145e-16 0
rhumerus -55.2339 3.64249 -96.3885
rradius 46.3863 0 0
rwrist 23.7308 0 0
rhand -22.2164 1.85386 0
rfingers 7.12502 0 0
rthumb 4.19818 -748 0
275
root 8.51579 16.0885 -25.068 24.3703 71.7918 23.5236
lfemur -23.3901 6.96706 -23.1268
ltibia 42.9539 0 0
lfoot -8.68542 -23.0743 0
ltoes 58.9557 0 0
rfemur -53.7596 -4.60426 14.4535
rtibia 79.4738 0 0
rfoot 7.5286 0.810989 0
rtoes 2.23722 0 0
lowerback 6.81046 -4.79461 -2.89943
upperback 2.04752 -6.56161 -2.24595
thorax -1.62215 -3.24386 -0.174225
lowerneck -4.86096 -11.4276 -4.88612
upperneck 0.799744 -15.118 5.72995
head 1.95233 -7.47022 2.0653
lclavicle -3.72695e-14 -1.35836e-15 0
lhumerus -44.6614 -36.4111 106.699
lradius 59.3225 0 0
lwrist 20.4537 0 0
lhand 19.5451 15.5392 0
lfingers 7.12502 0 0
lthumb 44.1103 39.3741 0
rclavicle -3.72695e-14 -1.35836e-15 0
rhumerus -55.9839 4.07369 -97.0894
rradius 48.1202 0 0
rwrist 22.8043 0 0
rhand -24.3574 3.74187 0
rfingers 7.12502 0 0
rthumb 2.13095 -746.154 0
276
root 8.58219 16.0504 -25.0208 25.343 72.7211 24.9598
lfemur -23.0924 6.85407 -23.2019
ltibia 43.8751 0 0
lfoot -9.63393 -23.7472 0
ltoes 57.2279 0 0
rfemur -54.0605 -3.94875 14.9673
rtibia 76.9901 0 0
rfoot 7.1123 1.3393 0
rtoes 1.89029 0 0
lowerback 6.90978 -4.94943 -3.00511
upperback 2.24713 -6.7674 -2.32881
thorax -1.46593 -3.34686 -0.187661
lowerneck -4.72467 -11.4957 -4.95357
upperneck 0.831477 -15.2173 5.86923
head 1.96339 -7.51958 2.12097
lclavicle -2.47734e-14 -2.30052e-15 0
lhumerus -44.6212 -36.7056 106.591
lradius 59.3737 0 0
lwrist 20.5693 0 0
lhand 19.8608 15.8368 0
lfingers 7.12502 0 0
lthumb 44.4049 39.5629 0
rclavicle -2.47734e-14 -2.30052e-15 0
rhumerus -56.7099 4.49113 -97.7679
rradius 49.7988 0 0
rwrist 21.9073 0 0
rhand -26.4301 5.56963 0
rfingers 7.12502 0 0
rthumb 0.129682 -744.366 0
277
root 8.64422 16.0149 -24.9767 26.2516 73.5891 26.3014
lfemur -22.8143 6.74853 -23.272
ltibia 44.7356 0 0
lfoot -10.5199 -24.3758 0
ltoes 55.614 0 0
rfemur -54.3415 -3.33646 15.4473
rtibia 74.6702 0 0
rfoot 6.72344 1.83277 0
rtoes 1.56624 0 0
lowerback 7.00255 -5.09403 -3.10382
upperback 2.43359 -6.95962 -2.40621
thorax -1.32002 -3.44307 -0.200211
lowerneck -4.59736 -11.5592 -5.01658
upperneck 0.861117 -15.31 5.99933
head 1.97371 -7.56568 2.17296
lclavicle -1.31012e-14 -3.18055e-15 0
lhumerus -44.5836 -36.9807 106.49
lradius 59.4215 0 0
lwrist 20.6773 0 0
lhand 20.1556 16.1148 0
lfingers 7.12502 0 0
lthumb 44.68 39.7393 0
rclavicle -1.31012e-14 -3.18055e-15 0
rhumerus -57.3881 4.88105 -98.4017
rradius 51.3667 0 0
rwrist 21.0695 0 0
rhand -28.3662 7.27687 0
rfingers 7.12502 0 0
rthumb -1.73963 -742.696 0
278
root 8.71405 15.9686 -24.924 28.0365 74.2527 28.8207
lfemur -22.0992 6.58398 -23.2327
ltibia 45.4641 0 0
lfoot -11.2055 -25.0043 0
ltoes 53.9614 0 0
rfemur -53.41 -2.90093 15.6317
rtibia 72.476 0 0
rfoot 7.64822 1.02112 0
rtoes 4.13622 0 0
lowerback 7.07237 -5.19714 -3.39863
upperback 2.69492 -7.09747 -2.5475
thorax -1.06479 -3.51521 -0.186676
lowerneck -4.39438 -11.6619 -5.13461
upperneck 0.989844 -15.4628 6.14223
head 2.01565 -7.64279 2.23643
lclavicle -1.32528e-14 -1.6004e-15 0
lhumerus -44.5079 -37.5598 106.383
lradius 59.5524 0 0
lwrist 20.3761 0 0
lhand 19.6471 15.9979 0
lfingers 7.12502 0 0
lthumb 44.2047 39.7921 0
rclavicle -1.32528e-14 -1.6004e-15 0
rhumerus -58.2175 5.38741 -98.6901
rradius 53.1439 0 0
rwrist 20.6198 0 0
rhand -28.4043 6.41896 0
rfingers 7.12502 0 0
rthumb -1.77638 -743.554 0
279
root 8.78881 15.9189 -24.8677 29.9473 74.9631 31.5178
lfemur -21.3337 6.40781 -23.1906
ltibia 46.2439 0 0
lfoot -11.9395 -25.6771 0
ltoes 52.1922 0 0
rfemur -52.4127 -2.43465 15.8291
rtibia 70.1269 0 0
rfoot 8.63827 0.152172 0
rtoes 6.88762 0 0
lowerback 7.14711 -5.30753 -3.71424
upperback 2.97469 -7.24505 -2.69876
thorax -0.791535 -3.59244 -0.172185
lowerneck -4.17708 -11.7719 -5.26096
upperneck 1.12766 -15.6263 6.29522
head 2.06056 -7.72535 2.30439
lclavicle -1.3415e-14 9.12965e-17 0
lhumerus -44.4268 -38.1797 106.268
lradius 59.6925 0 0
lwrist 20.0535 0 0
lhand 19.1027 15.8727 0
lfingers 7.12502 0 0
lthumb 43.6959 39.8486 0
rclavicle -1.3415e-14 9.12965e-17 0
rhumerus -59.1055 5.92952 -98.9989
rradius 55.0465 0 0
rwrist 20.1384 0 0
rhand -28.445 5.50049 0
rfingers 7.12502 0 0
rthumb -1.81572 -744.472 0
280
root 8.86603 15.8677 -24.8095 31.9212 75.697 34.3039
lfemur -20.5428 6.22583 -23.1471
ltibia 47.0495 0 0
lfoot -12.6977 -26.3721 0
ltoes 50.3646 0 0
rfemur -51.3826 -1.953 16.0329
rtibia 67.7003 0 0
rfoot 9.66097 -0.74542 0
rtoes 9.72972 0 0
lowerback 7.22433 -5.42156 -4.04026
upperback 3.26369 -7.39749 -2.85501
thorax -0.509276 -3.67222 -0.157217
lowerneck -3.95261 -11.8856 -5.39149
upperneck 1.27001 -15.7953 6.45324
head 2.10694 -7.81063 2.37458
lclavicle -1.35826e-14 1.83876e-15 0
lhumerus -44.343 -38.8201 106.149
lradius 59.8373 0 0
lwrist 19.7204 0 0
lhand 18.5403 15.7434 0
lfingers 7.12502 0 0
lthumb 43.1703 39.907 0
rclavicle -1.35826e-14 1.83876e-15 0
rhumerus -60.0228 6.4895 -99.3179
rradius 57.0118 0 0
rwrist 19.641 0 0
rhand -28.4871 4.55173 0
rfingers 7.12502 0 0
rthumb -1.85637 -745.42 0
281
root 8.94325 15.8165 -24.7512 33.895 76.4309 37.09
lfemur -19.752 6.04385 -23.1037
ltibia 47.8551 0 0
lfoot -13.4558 -27.0671 0
ltoes 48.537 0 0
rfemur -50.3524 -1.47135 16.2368
rtibia 65.2738 0 0
rfoot 10.6837 -1.64301 0
rtoes 12.5718 0 0
lowerback 7.30154 -5.5356 -4.36629
upperback 3.55268 -7.54994 -3.01126
thorax -0.227017 -3.75199 -0.142248
lowerneck -3.72814 -11.9992 -5.52201
upperneck 1.41237 -15.9642 6.61127
head 2.15332 -7.89591 2.44477
lclavicle -1.37502e-14 3.58622e-15 0
lhumerus -44.2593 -39.4605 106.03
lradius 59.982 0 0
lwrist 19.3873 0 0
lhand 17.9779 15.6141 0
lfingers 7.12502 0 0
lthumb 42.6446 39.9655 0
rclavicle -1.37502e-14 3.58622e-15 0
rhumerus -60.94 7.04948 -99.6368
rradius 58.9771 0 0
rwrist 19.1437 0 0
rhand -28.5292 3.60298 0
rfingers 7.12502 0 0
rthumb -1.89701 -746.368 0
